<svg width="133" height="48" viewBox="0 0 133 48" fill="none" xmlns="http://www.w3.org/2000/svg">
<g clip-path="url(#clip0_3001_2723)">
<g clip-path="url(#clip1_3001_2723)">
<path d="M36.0291 7.2928V-0.000976562H1.5873V20.5732H1.59362L0.861084 47.999H7.54231L7.92752 32.3506L15.6633 47.999H20.6964L28.3564 32.5211L28.9058 47.999H35.2902L34.2356 17.9714H28.4385L17.9052 39.3286L8.52113 20.1437V7.2928H36.0291Z" fill="#3DCFB6"/>
</g>
<path d="M44.0837 23.0228V0.932373H49.1516V18.5703H58.6991L58.3914 23.0228H44.0837Z" fill="white"/>
<path d="M65.4358 23.3235C63.6077 23.3235 62.2321 22.6991 61.3 21.4592C60.3679 20.2194 59.9064 18.4819 59.9335 16.2647L59.9969 7.17873H64.757L64.6937 15.8846C64.6937 16.8167 64.8566 17.5588 65.1914 18.0927C65.5263 18.6357 66.0421 18.8982 66.748 18.8982C67.3453 18.8982 67.8973 18.7081 68.395 18.3371C68.8928 17.966 69.3271 17.3416 69.6982 16.4728C70.0692 15.604 70.3679 14.4095 70.5851 12.8982C70.8023 11.3869 70.9199 9.47736 70.9471 7.16968H75.5534V23.0067H70.7932L71.0104 19.957C70.386 21.0339 69.5986 21.8665 68.6484 22.4457C67.6982 23.0248 66.6303 23.3144 65.4448 23.3144L65.4358 23.3235Z" fill="white"/>
<path d="M79.218 23.0216V-0.000976562H83.9782V13.5013L89.8605 7.18453H95.5257L88.3673 14.8406C88.847 15.1302 89.2361 15.5103 89.5528 15.9899L90.7655 17.8904C91.408 18.8859 92.313 19.3836 93.4714 19.3836C94.0958 19.3836 94.684 19.2297 95.2451 18.913L96.2678 22.4243C95.6886 22.7592 95.0913 22.9944 94.4759 23.1392C93.8605 23.284 93.218 23.3474 92.5302 23.3293C91.1818 23.3112 90.0687 23.0578 89.1818 22.5782C88.304 22.0985 87.5076 21.2931 86.8017 20.1528L85.589 18.2524C85.2994 17.7999 85.028 17.4198 84.7836 17.1302C84.5393 16.8406 84.2678 16.6144 83.9782 16.4424V23.0035H79.218V23.0216Z" fill="white"/>
<path d="M111.983 7.2469V23.0206H107.196L107.35 20.6586C106.209 22.4414 104.517 23.3374 102.282 23.3374C100.87 23.3374 99.6663 23.0206 98.6709 22.369C97.6754 21.7265 96.9152 20.8306 96.3994 19.6903C95.8835 18.55 95.6211 17.2469 95.6211 15.7718C95.6211 14.0071 95.9831 12.4596 96.7071 11.1383C97.431 9.80798 98.4084 8.77631 99.6301 8.04328C100.852 7.31025 102.218 6.93921 103.739 6.93921C104.734 6.93921 105.612 7.1383 106.381 7.54554C107.15 7.95278 107.739 8.48672 108.155 9.14735L108.562 7.2469H111.983ZM104.209 11.0749C103.069 11.0749 102.173 11.5003 101.522 12.351C100.87 13.2016 100.544 14.2876 100.544 15.6179C100.544 16.7582 100.798 17.636 101.304 18.2605C101.811 18.8849 102.499 19.1926 103.377 19.1926C104.436 19.1926 105.341 18.7582 106.101 17.8894C106.861 17.0206 107.232 15.8804 107.232 14.4686C107.232 13.4098 106.96 12.5863 106.427 11.9799C105.884 11.3826 105.15 11.0749 104.218 11.0749H104.209Z" fill="white"/>
<path d="M121.46 23.3296C119.161 23.3296 117.415 22.8952 116.238 22.0354C115.053 21.1757 114.365 20.0354 114.157 18.6327L118.112 17.6373C118.238 18.2436 118.582 18.7232 119.134 19.0852C119.695 19.4472 120.465 19.6282 121.433 19.6282C122.99 19.6282 123.768 19.2662 123.768 18.5422C123.768 18.1712 123.542 17.8816 123.098 17.6825C122.655 17.4834 121.931 17.2934 120.935 17.1033C119.071 16.7685 117.623 16.2436 116.591 15.5196C115.56 14.7956 115.053 13.6825 115.053 12.1893C115.053 11.1757 115.342 10.2708 115.922 9.48343C116.501 8.6961 117.297 8.07167 118.32 7.61918C119.333 7.16669 120.51 6.9314 121.831 6.9314C123.551 6.9314 124.98 7.33864 126.112 8.14406C127.243 8.94949 127.913 9.94496 128.121 11.1305L124.229 12.1893C124.085 11.7368 123.795 11.3567 123.37 11.0671C122.944 10.7775 122.365 10.6327 121.641 10.6327C120.953 10.6327 120.456 10.7504 120.13 10.9766C119.804 11.2029 119.65 11.4744 119.65 11.7821C119.65 12.1531 119.867 12.4517 120.302 12.6689C120.736 12.8861 121.505 13.1124 122.6 13.3386C123.723 13.5468 124.709 13.8273 125.569 14.1983C126.428 14.5603 127.107 15.0581 127.587 15.6916C128.076 16.325 128.32 17.1757 128.32 18.2617C128.32 19.2753 128.021 20.1712 127.433 20.9404C126.845 21.7096 126.03 22.2979 124.99 22.7142C123.949 23.1305 122.772 23.3386 121.442 23.3386L121.46 23.3296Z" fill="white"/>
<path d="M44.0291 47.6942L44.8073 25.6038H49.0698L56.8164 41.3141L64.4996 25.6038H68.762L69.3503 47.6942H64.4363L64.1557 36.1829L58.4634 47.6942H54.7621L49.1331 36.3096L48.7259 47.6942H44.0291Z" fill="white"/>
<path d="M76.2072 47.9832C74.3792 47.9832 73.0036 47.3588 72.0715 46.119C71.1394 44.8792 70.6778 43.1416 70.705 40.9244L70.7683 31.8385H75.5285L75.4652 40.5443C75.4652 41.4765 75.6281 42.2185 75.9629 42.7525C76.2977 43.2955 76.8136 43.5579 77.5195 43.5579C78.1167 43.5579 78.6688 43.3679 79.1665 42.9968C79.6642 42.6258 80.0986 42.0013 80.4697 41.1326C80.8407 40.2638 81.1394 39.0692 81.3565 37.5579C81.5737 36.0466 81.6914 34.1371 81.7185 31.8294H86.3249V47.6665H81.5647L81.7819 44.6167C81.1575 45.6936 80.3701 46.5262 79.4199 47.1054C78.4697 47.6846 77.4018 47.9742 76.2163 47.9742L76.2072 47.9832ZM75.3656 30.0104C74.4697 30.0104 73.8 29.7389 73.3475 29.205C72.895 28.662 72.6597 28.0919 72.6597 27.4946C72.6597 26.8521 72.886 26.2729 73.3475 25.757C73.8 25.2412 74.4787 24.9788 75.3656 24.9788C76.2525 24.9788 76.8769 25.2412 77.3385 25.757C77.809 26.2729 78.0353 26.8521 78.0353 27.4946C78.0353 28.1009 77.8 28.662 77.3385 29.205C76.8679 29.748 76.2163 30.0104 75.3656 30.0104ZM81.9629 30.0104C81.067 30.0104 80.3882 29.7389 79.9267 29.205C79.4561 28.662 79.2299 28.0919 79.2299 27.4946C79.2299 26.8521 79.4651 26.2729 79.9267 25.757C80.3973 25.2412 81.076 24.9788 81.9629 24.9788C82.8498 24.9788 83.4651 25.2412 83.9267 25.757C84.3792 26.2729 84.6145 26.8521 84.6145 27.4946C84.6145 28.1009 84.3882 28.662 83.9267 29.205C83.4742 29.748 82.8136 30.0104 81.9629 30.0104Z" fill="white"/>
<path d="M92.6312 47.9785C91.0294 47.9785 89.8077 47.535 88.9479 46.6572C88.0882 45.7794 87.6538 44.4943 87.6538 42.8111V24.6392H92.414V42.4672C92.414 43.4174 92.8574 43.897 93.7533 43.897C94.233 43.897 94.6312 43.7794 94.966 43.5531L96.1153 46.9468C95.7624 47.2364 95.2737 47.4807 94.6493 47.6798C94.0248 47.8789 93.3552 47.9785 92.6312 47.9785Z" fill="white"/>
<path d="M100.989 47.9785C99.3873 47.9785 98.1656 47.535 97.3058 46.6572C96.4461 45.7794 96.0117 44.4943 96.0117 42.8111V24.6392H100.772V42.4672C100.772 43.4174 101.215 43.897 102.111 43.897C102.591 43.897 102.989 43.7794 103.324 43.5531L104.473 46.9468C104.12 47.2364 103.632 47.4807 103.007 47.6798C102.383 47.8789 101.713 47.9785 100.989 47.9785Z" fill="white"/>
<path d="M113.274 48.0007C111.509 48.0007 109.989 47.6749 108.704 47.0233C107.419 46.3717 106.423 45.4487 105.718 44.2541C105.012 43.0595 104.659 41.6478 104.659 40.0098C104.659 38.3718 105.021 36.8876 105.736 35.6206C106.451 34.3537 107.419 33.3672 108.632 32.6614C109.844 31.9555 111.22 31.6025 112.749 31.6025C114.496 31.6025 115.908 32.0007 117.012 32.7881C118.107 33.5754 118.876 34.6885 119.301 36.1365C119.727 37.5754 119.817 39.2496 119.564 41.1591H109.518C109.645 41.9464 110.061 42.607 110.767 43.1319C111.473 43.6568 112.432 43.9283 113.663 43.9283C114.224 43.9283 114.813 43.8107 115.437 43.5663C116.061 43.331 116.586 42.969 117.021 42.4894L119.663 45.2858C118.975 46.1183 118.134 46.7699 117.129 47.2586C116.125 47.7473 114.84 47.9916 113.283 47.9916L113.274 48.0007ZM112.84 35.0595C112.007 35.0595 111.31 35.3129 110.74 35.8107C110.17 36.3084 109.79 37.0052 109.609 37.8921H115.555C115.573 36.9147 115.346 36.1998 114.858 35.7473C114.369 35.2948 113.699 35.0595 112.849 35.0595H112.84Z" fill="white"/>
<path d="M132.176 36.461C131.76 36.2981 131.199 36.2167 130.493 36.2167C129.416 36.2167 128.557 36.5968 127.914 37.3479C127.271 38.1081 126.801 39.3298 126.511 41.0221C126.222 42.7144 126.077 44.9406 126.077 47.6918H121.344V37.4293L121.281 31.8637H126.041L125.823 35.8185C126.385 34.3072 127.136 33.2303 128.077 32.5787C129.018 31.9361 130.032 31.6104 131.109 31.6104C131.461 31.6104 131.787 31.6285 132.086 31.6737C132.385 31.7189 132.692 31.7913 133 31.8909L132.158 36.461H132.176Z" fill="white"/>
</g>
<defs>
<clipPath id="clip0_3001_2723">
<rect width="132.139" height="48.0018" fill="white" transform="translate(0.861084 -0.000976562)"/>
</clipPath>
<clipPath id="clip1_3001_2723">
<rect width="35.168" height="48" fill="white" transform="translate(0.861084 -0.000976562)"/>
</clipPath>
</defs>
</svg>
