<svg width="133" height="48" viewBox="0 0 133 48" fill="none" xmlns="http://www.w3.org/2000/svg">
<g clip-path="url(#clip0_3001_2629)">
<g clip-path="url(#clip1_3001_2629)">
<path d="M36.0274 7.29378V0H1.5856V20.5741H1.59191L0.859375 48H7.5406L7.92581 32.3515L15.6616 48H20.6947L28.3547 32.522L28.9041 48H35.2885L34.2339 17.9724H28.4368L17.9034 39.3296L8.51942 20.1447V7.29378H36.0274Z" fill="#3DCFB6"/>
</g>
<path d="M44.082 23.0239V0.933411H49.1499V18.5714H58.6974L58.3897 23.0239H44.082Z" fill="white"/>
<path d="M65.434 23.3244C63.606 23.3244 62.2304 22.7 61.2983 21.4602C60.3662 20.2203 59.9046 18.4828 59.9318 16.2656L59.9951 7.17964H64.7553L64.692 15.8855C64.692 16.8176 64.8549 17.5597 65.1897 18.0936C65.5245 18.6366 66.0404 18.8991 66.7463 18.8991C67.3435 18.8991 67.8956 18.709 68.3933 18.338C68.8911 17.9669 69.3254 17.3425 69.6965 16.4737C70.0675 15.605 70.3662 14.4104 70.5834 12.8991C70.8005 11.3878 70.9182 9.47828 70.9453 7.17059H75.5517V23.0077H70.7915L71.0087 19.9579C70.3843 21.0348 69.5969 21.8674 68.6467 22.4466C67.6965 23.0258 66.6286 23.3154 65.4431 23.3154L65.434 23.3244Z" fill="white"/>
<path d="M79.2162 23.0226V0H83.9764V13.5022L89.8587 7.1855H95.5238L88.3655 14.8416C88.8451 15.1312 89.2343 15.5113 89.551 15.9909L90.7637 17.8914C91.4062 18.8868 92.3112 19.3846 93.4696 19.3846C94.094 19.3846 94.6822 19.2307 95.2433 18.914L96.2659 22.4253C95.6867 22.7601 95.0895 22.9954 94.4741 23.1402C93.8587 23.285 93.2162 23.3484 92.5284 23.3303C91.18 23.3122 90.0668 23.0588 89.18 22.5791C88.3021 22.0995 87.5058 21.2941 86.7999 20.1538L85.5872 18.2534C85.2976 17.8009 85.0261 17.4208 84.7818 17.1312C84.5374 16.8416 84.2659 16.6153 83.9764 16.4434V23.0045H79.2162V23.0226Z" fill="white"/>
<path d="M111.981 7.24782V23.0215H107.194L107.348 20.6596C106.208 22.4424 104.515 23.3383 102.28 23.3383C100.868 23.3383 99.6647 23.0215 98.6693 22.37C97.6738 21.7274 96.9136 20.8315 96.3978 19.6912C95.882 18.551 95.6195 17.2478 95.6195 15.7727C95.6195 14.008 95.9815 12.4605 96.7055 11.1392C97.4295 9.8089 98.4068 8.77722 99.6285 8.04419C100.85 7.31116 102.217 6.94012 103.737 6.94012C104.733 6.94012 105.61 7.13922 106.38 7.54646C107.149 7.9537 107.737 8.48763 108.153 9.14826L108.561 7.24782H111.981ZM104.208 11.0759C103.067 11.0759 102.172 11.5012 101.52 12.3519C100.868 13.2026 100.543 14.2885 100.543 15.6188C100.543 16.7591 100.796 17.6369 101.303 18.2614C101.81 18.8858 102.497 19.1935 103.375 19.1935C104.434 19.1935 105.339 18.7591 106.099 17.8903C106.859 17.0216 107.23 15.8813 107.23 14.4695C107.23 13.4107 106.959 12.5872 106.425 11.9808C105.882 11.3836 105.149 11.0759 104.217 11.0759H104.208Z" fill="white"/>
<path d="M121.458 23.3305C119.16 23.3305 117.413 22.8961 116.237 22.0364C115.051 21.1766 114.363 20.0364 114.155 18.6336L118.11 17.6382C118.237 18.2445 118.58 18.7241 119.133 19.0861C119.694 19.4481 120.463 19.6291 121.431 19.6291C122.988 19.6291 123.766 19.2671 123.766 18.5431C123.766 18.1721 123.54 17.8825 123.096 17.6834C122.653 17.4843 121.929 17.2943 120.933 17.1042C119.069 16.7694 117.621 16.2445 116.59 15.5205C115.558 14.7965 115.051 13.6834 115.051 12.1902C115.051 11.1766 115.341 10.2717 115.92 9.48434C116.499 8.69701 117.295 8.07258 118.318 7.62009C119.332 7.16761 120.508 6.93231 121.829 6.93231C123.549 6.93231 124.979 7.33955 126.11 8.14498C127.241 8.95041 127.911 9.94588 128.119 11.1314L124.228 12.1902C124.083 11.7377 123.793 11.3576 123.368 11.0681C122.942 10.7785 122.363 10.6337 121.639 10.6337C120.952 10.6337 120.454 10.7513 120.128 10.9776C119.802 11.2038 119.648 11.4753 119.648 11.783C119.648 12.154 119.866 12.4527 120.3 12.6699C120.734 12.8871 121.504 13.1133 122.599 13.3395C123.721 13.5477 124.707 13.8282 125.567 14.1993C126.427 14.5613 127.105 15.059 127.585 15.6925C128.074 16.326 128.318 17.1766 128.318 18.2626C128.318 19.2762 128.019 20.1721 127.431 20.9413C126.843 21.7106 126.028 22.2988 124.988 22.7151C123.947 23.1314 122.771 23.3395 121.44 23.3395L121.458 23.3305Z" fill="white"/>
<path d="M44.0273 47.6951L44.8056 25.6047H49.0681L56.8147 41.3151L64.4979 25.6047H68.7603L69.3486 47.6951H64.4345L64.154 36.1838L58.4617 47.6951H54.7604L49.1314 36.3105L48.7242 47.6951H44.0273Z" fill="white"/>
<path d="M76.2055 47.9843C74.3775 47.9843 73.0019 47.3598 72.0698 46.12C71.1377 44.8802 70.6761 43.1427 70.7033 40.9255L70.7666 31.8395H75.5268L75.4635 40.5454C75.4635 41.4775 75.6263 42.2196 75.9612 42.7535C76.296 43.2965 76.8119 43.5589 77.5177 43.5589C78.115 43.5589 78.6671 43.3689 79.1648 42.9979C79.6625 42.6268 80.0969 42.0024 80.468 41.1336C80.839 40.2648 81.1376 39.0703 81.3548 37.559C81.572 36.0476 81.6897 34.1381 81.7168 31.8305H86.3232V47.6675H81.563L81.7802 44.6178C81.1557 45.6947 80.3684 46.5273 79.4182 47.1064C78.468 47.6856 77.4001 47.9752 76.2146 47.9752L76.2055 47.9843ZM75.3639 30.0115C74.468 30.0115 73.7983 29.74 73.3458 29.206C72.8933 28.663 72.658 28.0929 72.658 27.4956C72.658 26.8531 72.8843 26.2739 73.3458 25.7581C73.7983 25.2422 74.477 24.9798 75.3639 24.9798C76.2508 24.9798 76.8752 25.2422 77.3368 25.7581C77.8073 26.2739 78.0336 26.8531 78.0336 27.4956C78.0336 28.102 77.7983 28.663 77.3368 29.206C76.8662 29.749 76.2146 30.0115 75.3639 30.0115ZM81.9612 30.0115C81.0652 30.0115 80.3865 29.74 79.925 29.206C79.4544 28.663 79.2282 28.0929 79.2282 27.4956C79.2282 26.8531 79.4634 26.2739 79.925 25.7581C80.3956 25.2422 81.0743 24.9798 81.9612 24.9798C82.848 24.9798 83.4634 25.2422 83.925 25.7581C84.3775 26.2739 84.6128 26.8531 84.6128 27.4956C84.6128 28.102 84.3865 28.663 83.925 29.206C83.4725 29.749 82.8118 30.0115 81.9612 30.0115Z" fill="white"/>
<path d="M92.6296 47.9793C91.0278 47.9793 89.8061 47.5359 88.9463 46.6581C88.0866 45.7802 87.6522 44.4952 87.6522 42.8119V24.64H92.4124V42.468C92.4124 43.4183 92.8558 43.8979 93.7518 43.8979C94.2314 43.8979 94.6296 43.7802 94.9644 43.554L96.1137 46.9477C95.7608 47.2373 95.2721 47.4816 94.6477 47.6807C94.0233 47.8798 93.3536 47.9793 92.6296 47.9793Z" fill="white"/>
<path d="M100.987 47.9793C99.3856 47.9793 98.1639 47.5359 97.3041 46.6581C96.4444 45.7802 96.01 44.4952 96.01 42.8119V24.64H100.77V42.468C100.77 43.4183 101.214 43.8979 102.11 43.8979C102.589 43.8979 102.987 43.7802 103.322 43.554L104.472 46.9477C104.119 47.2373 103.63 47.4816 103.005 47.6807C102.381 47.8798 101.711 47.9793 100.987 47.9793Z" fill="white"/>
<path d="M113.272 48.0017C111.508 48.0017 109.987 47.6759 108.702 47.0244C107.417 46.3728 106.422 45.4497 105.716 44.2551C105.01 43.0606 104.657 41.6488 104.657 40.0108C104.657 38.3728 105.019 36.8886 105.734 35.6217C106.449 34.3547 107.417 33.3683 108.63 32.6624C109.842 31.9565 111.218 31.6036 112.747 31.6036C114.494 31.6036 115.906 32.0018 117.01 32.7891C118.105 33.5764 118.874 34.6895 119.299 36.1375C119.725 37.5764 119.815 39.2506 119.562 41.1601H109.517C109.643 41.9474 110.06 42.6081 110.765 43.133C111.471 43.6578 112.431 43.9293 113.661 43.9293C114.222 43.9293 114.811 43.8117 115.435 43.5674C116.06 43.3321 116.584 42.9701 117.019 42.4904L119.661 45.2868C118.974 46.1194 118.132 46.771 117.127 47.2597C116.123 47.7483 114.838 47.9927 113.281 47.9927L113.272 48.0017ZM112.838 35.0606C112.005 35.0606 111.308 35.314 110.738 35.8117C110.168 36.3094 109.788 37.0063 109.607 37.8932H115.553C115.571 36.9158 115.345 36.2009 114.856 35.7484C114.367 35.2959 113.698 35.0606 112.847 35.0606H112.838Z" fill="white"/>
<path d="M132.175 36.4621C131.758 36.2992 131.197 36.2177 130.491 36.2177C129.415 36.2177 128.555 36.5978 127.912 37.3489C127.27 38.1091 126.799 39.3308 126.51 41.0231C126.22 42.7154 126.075 44.9417 126.075 47.6928H121.342V37.4304L121.279 31.8648H126.039L125.822 35.8195C126.383 34.3082 127.134 33.2313 128.075 32.5797C129.016 31.9372 130.03 31.6114 131.107 31.6114C131.46 31.6114 131.786 31.6295 132.084 31.6747C132.383 31.72 132.691 31.7924 132.998 31.8919L132.157 36.4621H132.175Z" fill="white"/>
</g>
<defs>
<clipPath id="clip0_3001_2629">
<rect width="132.139" height="48.0018" fill="white" transform="translate(0.859375)"/>
</clipPath>
<clipPath id="clip1_3001_2629">
<rect width="35.168" height="48" fill="white" transform="translate(0.859375)"/>
</clipPath>
</defs>
</svg>
