<?xml version="1.0" encoding="UTF-8"?>
<!DOCTYPE svg PUBLIC "-//W3C//DTD SVG 1.1//EN" "http://www.w3.org/Graphics/SVG/1.1/DTD/svg11.dtd">
<svg xmlns="http://www.w3.org/2000/svg" version="1.1" width="144px" height="132px" style="shape-rendering:geometricPrecision; text-rendering:geometricPrecision; image-rendering:optimizeQuality; fill-rule:evenodd; clip-rule:evenodd" xmlns:xlink="http://www.w3.org/1999/xlink">
<g><path style="opacity:1" fill="#3dcfb6" d="M 49.5,21.5 C 49.7845,19.5853 49.4511,17.9187 48.5,16.5C 59.4611,5.08836 71.7944,3.58836 85.5,12C 91.6781,17.5249 95.3447,24.3582 96.5,32.5C 104.042,31.2627 110.042,33.9294 114.5,40.5C 131.121,42.6125 138.621,51.9459 137,68.5C 131.457,81.1944 122.29,85.5278 109.5,81.5C 117.876,81.2542 125.042,78.2542 131,72.5C 137.022,61.2341 134.522,52.4007 123.5,46C 119.821,45.2127 116.154,44.3793 112.5,43.5C 108.131,35.4899 101.798,33.4899 93.5,37.5C 92.4968,18.991 82.8301,10.1576 64.5,11C 58.0633,12.5433 53.0633,16.0433 49.5,21.5 Z"/></g>
<g><path style="opacity:1" fill="#6cdac7" d="M 48.5,16.5 C 49.4511,17.9187 49.7845,19.5853 49.5,21.5C 48.0991,24.7036 47.0991,28.0369 46.5,31.5C 45.0687,32.7804 44.4021,34.4471 44.5,36.5C 43.1667,35.8333 42.1667,34.8333 41.5,33.5C 42.6138,32.1147 43.6138,30.6147 44.5,29C 44.2716,28.6012 43.9382,28.4346 43.5,28.5C 43.6168,23.8066 45.2835,19.8066 48.5,16.5 Z"/></g>
<g><path style="opacity:1" fill="#3dcfb6" d="M 43.5,28.5 C 43.9382,28.4346 44.2716,28.6012 44.5,29C 43.6138,30.6147 42.6138,32.1147 41.5,33.5C 30.2656,28.9513 23.2656,32.6179 20.5,44.5C 7.885,48.4035 3.05166,56.7369 6,69.5C 11.4494,77.974 19.2827,81.8073 29.5,81C 16.7096,85.5312 7.5429,81.3646 2,68.5C -0.537133,55.236 4.46287,46.236 17,41.5C 21.1149,29.0252 29.2816,25.0252 41.5,29.5C 42.1835,29.1373 42.8501,28.8039 43.5,28.5 Z"/></g>
<g><path style="opacity:1" fill="#baede5" d="M 46.5,31.5 C 46.6633,33.8568 46.4966,36.1902 46,38.5C 45.2828,37.9558 44.7828,37.2891 44.5,36.5C 44.4021,34.4471 45.0687,32.7804 46.5,31.5 Z"/></g>
<g><path style="opacity:1" fill="#3dcfb5" d="M 67.5,54.5 C 90.7227,56.0937 103.389,68.427 105.5,91.5C 103.125,113.375 90.9581,125.375 69,127.5C 51.1042,125.936 39.4376,116.603 34,99.5C 31.3321,74.0217 42.4988,59.0217 67.5,54.5 Z"/></g>
<g><path style="opacity:1" fill="#fefffe" d="M 51.5,70.5 C 55.1667,70.5 58.8333,70.5 62.5,70.5C 62.5,72.1667 62.5,73.8333 62.5,75.5C 59.5525,75.2229 56.7191,75.5562 54,76.5C 53.6667,80.1667 53.3333,83.8333 53,87.5C 52.5348,88.9308 51.7014,90.0975 50.5,91C 51.2106,92.2547 52.044,93.4214 53,94.5C 53.3333,98.1667 53.6667,101.833 54,105.5C 56.7191,106.444 59.5525,106.777 62.5,106.5C 62.5,108.5 62.5,110.5 62.5,112.5C 51.0652,113.898 46.2319,108.898 48,97.5C 46.5422,95.04 44.7089,92.8734 42.5,91C 47.9014,86.903 50.068,81.403 49,74.5C 49.6622,73.0161 50.4955,71.6828 51.5,70.5 Z"/></g>
<g><path style="opacity:1" fill="#fefffe" d="M 75.5,70.5 C 79.1817,70.3347 82.8484,70.5014 86.5,71C 87.3081,71.3076 87.9747,71.8076 88.5,72.5C 90.1178,76.6444 90.9511,80.9778 91,85.5C 92.892,87.0542 94.392,88.8876 95.5,91C 94.392,93.1124 92.892,94.9458 91,96.5C 90.8702,100.951 90.2036,105.284 89,109.5C 84.8645,111.999 80.3645,112.999 75.5,112.5C 75.2606,110.533 75.5939,108.699 76.5,107C 79.146,106.503 81.8127,106.336 84.5,106.5C 83.708,100.721 85.0414,95.5543 88.5,91C 86.5125,89.6811 85.3459,87.8477 85,85.5C 84.5017,82.1832 84.335,78.8499 84.5,75.5C 81.5,75.5 78.5,75.5 75.5,75.5C 75.5,73.8333 75.5,72.1667 75.5,70.5 Z"/></g>
</svg>
