<?xml version="1.0" standalone="no"?>
<!DOCTYPE svg PUBLIC "-//W3C//DTD SVG 20010904//EN"
 "http://www.w3.org/TR/2001/REC-SVG-20010904/DTD/svg10.dtd">
<svg version="1.0" xmlns="http://www.w3.org/2000/svg"
 width="144.000000pt" height="132.000000pt" viewBox="0 0 144.000000 132.000000"
 preserveAspectRatio="xMidYMid meet">

<g transform="translate(0.000000,132.000000) scale(0.100000,-0.100000)"
fill="#000000" stroke="none">
<path d="M0 660 l0 -660 720 0 720 0 0 660 0 660 -720 0 -720 0 0 -660z m818
556 c73 -37 122 -99 143 -179 10 -43 12 -45 49 -45 47 -1 90 -22 122 -60 17
-21 36 -30 67 -35 133 -17 222 -178 162 -294 -40 -80 -125 -128 -213 -121 -64
5 -58 24 9 33 91 11 141 42 174 107 25 48 24 91 -2 146 -27 54 -80 91 -146 99
-42 4 -53 10 -67 34 -32 54 -100 71 -168 44 -16 -6 -18 -1 -18 41 -1 150 -152
257 -301 213 -88 -27 -159 -126 -159 -223 l0 -48 -40 36 c-33 30 -48 36 -83
36 -64 0 -108 -35 -127 -101 -8 -29 -16 -38 -39 -42 -41 -9 -91 -55 -113 -105
-27 -59 -18 -120 24 -168 41 -46 72 -61 145 -69 46 -6 60 -11 56 -21 -8 -20
-100 -17 -149 5 -50 23 -112 93 -120 138 -11 56 1 130 27 168 13 20 46 49 73
65 34 20 57 43 75 76 38 69 70 89 139 88 31 0 65 -3 76 -5 15 -3 21 6 32 43
19 63 94 138 160 161 64 22 148 15 212 -17z m13 -480 c195 -77 283 -303 190
-491 -111 -224 -412 -270 -582 -88 -65 69 -93 133 -97 221 -7 120 30 215 114
292 103 95 240 119 375 66z"/>
</g>
</svg>
