<?xml version="1.0" encoding="utf-8"?>
<!DOCTYPE svg PUBLIC "-//W3C//DTD SVG 1.0//EN" "http://www.w3.org/TR/2001/REC-SVG-20010904/DTD/svg10.dtd">
<svg version="1.0" xmlns="http://www.w3.org/2000/svg" width="526px" height="167px" viewBox="0 0 526 167" preserveAspectRatio="xMidYMid meet">
 <g fill="#ffffff">
  <path d="M245 125.7 l0 -28.3 4.8 -4.7 4.8 -4.7 19.5 0 19.5 0 4.7 4.8 4.7 4.8 0 28.2 0 28.2 -8 0 -8 0 0 -9.5 0 -9.5 -12.5 0 -12.5 0 0 9.5 0 9.5 -8.5 0 -8.5 0 0 -28.3z m42 -14.2 l0 -9.5 -12.5 0 -12.5 0 0 9.5 0 9.5 12.5 0 12.5 0 0 -9.5z"/>
  <path d="M332 128 l0 -26 -9.5 0 -9.5 0 0 -7 0 -7 28 0 28 0 0 7 0 7 -10 0 -10 0 0 26 0 26 -8.5 0 -8.5 0 0 -26z"/>
  <path d="M376 147.5 l0 -6.5 3 0 3 0 0 -20.5 0 -20.5 -3 0 -3 0 0 -6 0 -6 14 0 14 0 0 6 0 6 -3 0 -3 0 0 20.5 0 20.5 3 0 3 0 0 6.5 0 6.5 -14 0 -14 0 0 -6.5z"/>
  <path d="M420.7 149.2 l-4.7 -4.8 0 -28.2 0 -28.2 8 0 8 0 0 26 0 26 18 0 18 0 0 7 0 7 -21.3 0 -21.3 0 -4.7 -4.8z"/>
  <path d="M477 147.5 l0 -6.5 3 0 3 0 0 -20.5 0 -20.5 -3 0 -3 0 0 -6 0 -6 14 0 14 0 0 6 0 6 -3 0 -3 0 0 20.5 0 20.5 3 0 3 0 0 6.5 0 6.5 -14 0 -14 0 0 -6.5z"/>
  <path d="M175 42.5 l0 -31.5 7.8 0 7.7 0 7.5 14.5 c4.1 8 7.7 14.5 8 14.5 0.3 0 3.9 -6.5 8 -14.5 l7.5 -14.5 7.8 0 7.7 0 0 31.5 0 31.5 -7.5 0 -7.5 0 -0.2 -18.2 -0.3 -18.3 -5.8 11.3 -5.7 11.2 -3.9 0 -4 0 -5.3 -10.5 c-2.9 -5.8 -5.6 -10.5 -6 -10.5 -0.5 0 -0.8 7.9 -0.8 17.5 l0 17.5 -7.5 0 -7.5 0 0 -31.5z"/>
  <path d="M255.7 69.2 l-4.7 -4.8 0 -26.7 0 -26.7 7.5 0 7.5 0 0 25 0 25.1 11.8 -0.3 11.7 -0.3 0.3 -24.7 0.2 -24.8 7.5 0 7.5 0 0 26.8 0 26.8 -4.8 4.7 -4.8 4.7 -17.5 0 -17.5 0 -4.7 -4.8z"/>
  <path d="M319 42.5 l0 -31.5 22.8 0 22.8 0 5.2 5.3 5.2 5.3 0 9.9 0 9.9 -5.1 5.2 -5.1 5.2 5.1 7.9 c3.4 5.3 5.1 9.1 5.1 11.1 l0 3.2 -7.3 0 -7.4 0 -6.5 -10.7 -6.6 -10.8 -6.3 0 -6.4 0 -0.3 10.8 -0.3 10.7 -7.4 0 -7.5 0 0 -31.5z m39.8 -10.7 l-0.3 -7.3 -12 0 -12 0 -0.3 7.3 -0.3 7.2 12.6 0 12.6 0 -0.3 -7.2z"/>
  <path d="M388 47.2 l0 -26.8 4.8 -4.7 4.8 -4.7 17.5 0 17.5 0 5.2 5.3 5.2 5.3 0 26.2 0 26.2 -8 0 -8 0 0 -9 0 -9 -11.5 0 -11.5 0 0 9 0 9 -8 0 -8 0 0 -26.8z m39 -13.7 l0 -9.5 -11.5 0 -11.5 0 0 9.5 0 9.5 11.5 0 11.5 0 0 -9.5z"/>
  <path d="M470 49 l0 -25 -9 0 -9 0 0 -6.5 0 -6.5 26.5 0 26.5 0 0 6.5 0 6.5 -9.5 0 -9.5 0 0 25 0 25 -8 0 -8 0 0 -25z"/>
 </g>
 <g fill="#3dcfb6">
  <path d="M180.2 148.7 l-5.2 -5.3 0 -23 0 -23 4.8 -4.7 4.8 -4.7 18.5 0 18.5 0 4.7 4.8 c4.3 4.3 4.7 5.2 4.7 9.5 l0 4.7 -5.8 0 c-4.9 0 -6.2 -0.4 -8.2 -2.5 -2.2 -2.4 -2.9 -2.5 -14.2 -2.5 l-11.8 0 0 19 0 19 11.3 0 c11.3 0 11.3 0 14.2 -3 2.5 -2.7 3.5 -3 8.7 -3 l5.8 0 0 4.8 c0 4.4 -0.4 5.1 -5.3 10 l-5.3 5.2 -17.5 0 -17.5 0 -5.2 -5.3z"/>
  <path d="M71.4 142 c-6.6 -1.4 -13.6 -5.4 -18.5 -10.7 -6.5 -6.9 -9.3 -13.3 -9.7 -22.1 -0.7 -12.3 3.1 -21.7 11.9 -29.6 15.8 -14.2 41.4 -10.9 53.3 6.9 11 16.4 7.6 37 -7.9 48.7 -8 6.1 -19.7 8.8 -29.1 6.8z m0.6 -16.9 c0 -2.8 -0.3 -3 -4.2 -3.3 l-4.3 -0.3 -0.3 -5.4 c-0.2 -3 -1 -6.3 -1.7 -7.4 -1.2 -1.6 -1.2 -2.4 -0.2 -3.5 0.7 -0.8 1.4 -4.2 1.7 -7.6 l0.5 -6.1 4.3 -0.3 c3.7 -0.3 4.2 -0.6 4.2 -2.8 0 -2.2 -0.3 -2.4 -5.4 -2.4 -6.8 0 -8.6 2 -8.6 9.5 0 4.4 -0.4 5.5 -3 8 l-2.9 2.8 2.9 3.4 c2.5 2.8 3 4.2 3 8.7 0 7.1 2.5 9.4 10.3 9.5 3.5 0.1 3.7 -0.1 3.7 -2.8z m22.9 1.8 c4 -1.4 5.1 -3.5 5.1 -9.7 0 -3.9 0.5 -5.3 2.5 -7.2 1.4 -1.3 2.5 -2.9 2.5 -3.5 0 -0.6 -1.1 -2.2 -2.5 -3.5 -1.9 -1.8 -2.5 -3.3 -2.5 -6.7 0 -4.4 -1.3 -8.2 -3.4 -9.5 -0.6 -0.4 -3.5 -0.8 -6.3 -0.8 -5 0 -5.3 0.1 -5.3 2.5 0 2.3 0.4 2.5 4.4 2.5 l4.4 0 0.4 6 c0.3 3.6 1.1 6.7 2 7.6 1.4 1.4 1.3 1.9 -0.3 5.2 -1.1 2 -1.9 5.5 -1.9 7.9 l0 4.2 -4.2 0.3 c-3.9 0.3 -4.3 0.6 -4.6 3.1 -0.3 2.5 -0.1 2.7 3.1 2.7 1.9 0 4.8 -0.5 6.6 -1.1z"/>
  <path d="M23.4 97.1 c-5 -2.3 -11.2 -9.3 -12 -13.8 -1.1 -5.6 0.1 -13 2.7 -16.8 1.3 -2 4.6 -4.9 7.3 -6.5 3.4 -2 5.7 -4.3 7.5 -7.6 1.4 -2.6 3.8 -5.6 5.2 -6.6 4.9 -3.6 16.4 -3.6 15.7 0 -0.3 1.3 -1.3 1.6 -5.1 1.3 -7.1 -0.4 -11.7 3 -13.7 10 -0.8 2.9 -1.6 3.8 -3.9 4.2 -4.1 0.9 -9.1 5.5 -11.3 10.5 -2.7 5.9 -1.8 12 2.4 16.8 4.1 4.6 7.2 6.1 14.5 6.9 4.6 0.6 6 1.1 5.6 2.1 -0.8 2 -10 1.7 -14.9 -0.5z"/>
  <path d="M119.7 98.3 c-1.5 -1.5 -0.4 -2.1 5 -2.8 9.1 -1.1 14.1 -4.2 17.4 -10.7 2.5 -4.8 2.4 -9.1 -0.2 -14.6 -2.7 -5.4 -8 -9.1 -14.6 -9.9 -4.2 -0.4 -5.3 -1 -6.7 -3.4 -3.2 -5.4 -10 -7.1 -16.8 -4.4 -1.6 0.6 -1.8 0.1 -1.8 -4.1 -0.1 -18.4 -21.8 -28.8 -36.9 -17.6 -2.7 2 -3.5 2.2 -4.2 1.1 -1.3 -2.1 -1.2 -2.3 1.9 -4.6 15.1 -11.2 37.6 -2.6 42.3 16 1 4.3 1.2 4.5 4.9 4.5 4.7 0.1 9 2.2 12.2 6 1.7 2.1 3.6 3 6.7 3.5 13.3 1.7 22.2 17.8 16.2 29.4 -2.5 5 -8.3 10 -13.1 11.3 -4 1.1 -11.3 1.3 -12.3 0.3z"/>
 </g>
</svg>